<svg width="122" height="122" viewBox="0 0 122 122" fill="none" xmlns="http://www.w3.org/2000/svg">
<path d="M1.25 8C1.25 4.27208 4.27208 1.25 8 1.25H40.75V40.75H1.25V8Z" fill="#FEC62E"/>
<path d="M24.9373 19.22H20.1173V15.94H25.5373V13.32H16.8773V28H25.8773V25.36H20.1173V21.78H24.9373V19.22Z" fill="#252525"/>
<path d="M1.25 8C1.25 4.27208 4.27208 1.25 8 1.25H40.75V40.75H1.25V8Z" stroke="#252525" stroke-width="2.5"/>
<rect x="41.25" y="1.25" width="39.5" height="39.5" fill="white"/>
<path d="M61.3477 25.66C59.6877 25.66 58.6677 24.34 58.6677 20.8C58.6677 16.84 59.9077 15.62 61.4277 15.62C62.7277 15.62 63.6877 16.32 63.6677 18.66L66.8477 18.42C66.8477 15.14 65.0077 13.06 61.6077 13.06C57.8677 13.06 55.2477 15.52 55.2477 20.88C55.2477 25.8 57.4277 28.24 61.1877 28.24C64.4277 28.24 66.3877 26.72 66.7277 23.2L63.6077 22.98C63.4677 24.74 62.7477 25.66 61.3477 25.66Z" fill="#252525"/>
<rect x="41.25" y="1.25" width="39.5" height="39.5" stroke="#252525" stroke-width="2.5"/>
<path d="M81.25 1.25H114C117.728 1.25 120.75 4.27208 120.75 8V40.75H81.25V1.25Z" fill="white"/>
<path d="M98.8478 13.32H95.6078V28H98.8478V23.58L100.228 21.94L104.148 28H107.928L102.408 19.34L107.488 13.32H103.888L98.8478 19.44V13.32Z" fill="#252525"/>
<path d="M81.25 1.25H114C117.728 1.25 120.75 4.27208 120.75 8V40.75H81.25V1.25Z" stroke="#252525" stroke-width="2.5"/>
<path d="M1.25 41.25H40.75V80.75H1.25V41.25Z" fill="white"/>
<path d="M21.3477 65.66C19.6877 65.66 18.6677 64.34 18.6677 60.8C18.6677 56.84 19.9077 55.62 21.4277 55.62C22.7277 55.62 23.6877 56.32 23.6677 58.66L26.8477 58.42C26.8477 55.14 25.0077 53.06 21.6077 53.06C17.8677 53.06 15.2477 55.52 15.2477 60.88C15.2477 65.8 17.4277 68.24 21.1877 68.24C24.4277 68.24 26.3877 66.72 26.7277 63.2L23.6077 62.98C23.4677 64.74 22.7477 65.66 21.3477 65.66Z" fill="#252525"/>
<path d="M1.25 41.25H40.75V80.75H1.25V41.25Z" stroke="#252525" stroke-width="2.5"/>
<rect x="81.25" y="41.25" width="39.5" height="39.5" fill="white"/>
<path d="M104.937 59.22H100.117V55.94H105.537V53.32H96.8773V68H105.877V65.36H100.117V61.78H104.937V59.22Z" fill="#252525"/>
<rect x="81.25" y="41.25" width="39.5" height="39.5" stroke="#252525" stroke-width="2.5"/>
<path d="M81.25 81.25H120.75V114C120.75 117.728 117.728 120.75 114 120.75H81.25V81.25Z" fill="white"/>
<path d="M81.25 81.25H120.75V114C120.75 117.728 117.728 120.75 114 120.75H81.25V81.25Z" stroke="#252525" stroke-width="2.5"/>
<path d="M1.25 81.25H40.75V120.75H8C4.27208 120.75 1.25 117.728 1.25 114V81.25Z" fill="white"/>
<path d="M26.8386 108V93.32H23.8386V103.28L18.9586 93.32H15.1586V108H18.1586V98.18L23.2386 108H26.8386Z" fill="#252525"/>
<path d="M1.25 81.25H40.75V120.75H8C4.27208 120.75 1.25 117.728 1.25 114V81.25Z" stroke="#252525" stroke-width="2.5"/>
<path d="M41.25 41.25H80.75V80.75H41.25V41.25Z" fill="white"/>
<path d="M66.7563 53.32H63.4963V59.38H58.4963V53.32H55.2563V68H58.4963V62.04H63.4963V68H66.7563V53.32Z" fill="#252525"/>
<path d="M41.25 41.25H80.75V80.75H41.25V41.25Z" stroke="#252525" stroke-width="2.5"/>
<path d="M41.25 81.25H80.75V120.75H41.25V81.25Z" fill="white"/>
<path d="M41.25 81.25H80.75V120.75H41.25V81.25Z" stroke="#252525" stroke-width="2.5"/>
</svg>
